<?xml version="1.0" encoding="UTF-8"?><svg id="Camada_2" xmlns="http://www.w3.org/2000/svg" viewBox="0 0 1005.14 256.89"><defs><style>.cls-1{fill:#262626;}</style></defs><g id="Camada_1-2"><g><path class="cls-1" d="M27.43,179.35c0,12.66,12.92,22.95,26.9,22.95,5.01,0,11.6-1.58,16.62-5.01,13.71-9.23,17.67-32.97,19.25-59.34,.26-3.96,.26-8.97,.26-13.98,0-7.65-.26-18.99-.53-27.96-.26-10.81-.53-22.16-.53-32.97,0-13.98,.79-29.28,3.69-45.63-15.3,16.09-34.02,39.3-34.02,64.62,0,12.13,8.7,19.78,14.51,31.39,.79,1.58,1.06,2.9,1.06,4.48,0,9.5-12.4,19.25-17.94,21.63-11.34-7.12-23.47-20.31-23.47-41.41,0-17.94,7.65-36.66,17.14-53.54,10.29-18.2,22.68-31.91,30.6-37.98,6.07-4.75,15.82-6.59,25.06-6.59,11.6,0,22.95,2.64,22.95,6.33,0,.53-.26,.79-.53,1.32-6.33,9.23-7.91,29.54-7.91,51.69,0,24.79,2.11,49.58,2.11,76.22,0,28.75-10.02,54.07-29.54,70.68-10.02,8.7-28.75,14.24-45.63,14.24-15.3,0-30.59-4.48-39.83-14.51-5.54-5.8-7.65-12.66-7.65-19.78,0-18.46,15.3-37.19,35.61-37.19,1.58,0,11.87,.26,13.45,6.33-15.3,3.69-21.63,13.98-21.63,24Z"/><path class="cls-1" d="M255.57,188.05c6.59-5.54,12.92-15.3,14.24-23.47,3.17,.53,7.38,4.22,7.38,10.81,0,1.58-.53,3.96-1.32,6.07-2.64,7.38-8.7,16.09-16.35,21.89-5.01,3.96-10.29,6.33-14.51,6.33-7.38,0-26.37-3.69-33.23-24.79-2.11-7.12-2.9-14.77-2.9-22.42,0-9.76,1.05-20.04,1.85-30.07,.53-7.12,1.58-15.56,1.58-22.42,0-7.65-1.32-13.19-5.8-13.19-2.37,0-5.8,3.96-9.5,10.55-4.75,8.7-10.29,21.89-15.03,35.87-8.97,25.06-16.62,53.01-16.62,60.93v1.85c0,2.64-1.32,3.69-3.17,3.69-6.07,0-18.99-11.61-21.89-29.54-.79-4.48-1.05-8.97-1.05-13.45,0-8.44,1.05-21.89,2.11-33.76,1.05-14.51,2.37-29.8,2.37-41.14,0-5.54-.26-10.02-.79-13.71,1.32-.26,2.9-.53,4.48-.53,7.91,0,16.62,5.28,20.84,15.03,1.58,3.43,1.85,9.76,1.85,16.62,0,14.51-2.64,31.39-2.64,40.62,0-.26,.26-.53,.26-1.05,1.32-5.01,5.8-22.16,12.4-38.24,5.54-13.45,11.34-25.85,16.62-29.54,3.96-2.9,8.44-4.22,13.19-4.22,12.92,0,26.9,9.76,30.33,20.84,1.32,4.48,1.85,10.29,1.85,16.62,0,9.5-1.05,20.31-1.85,29.8-.26,4.48-1.85,17.14-1.85,28.22,0,8.44,.26,20.04,7.91,20.04,2.9,0,6.07-1.58,9.23-4.22Z"/><path class="cls-1" d="M311.75,63.83c1.85,0,9.23,.79,14.77,2.37,3.69,1.05,6.33,3.17,6.33,5.28,0,3.43-6.33,4.22-8.97,7.65-2.11,2.64-3.43,6.86-3.43,10.55,0,2.37,.53,4.75,1.85,7.12,4.75,8.7,10.55,19.78,10.55,19.78,7.91,15.83,16.62,30.59,16.62,49.85,0,7.38-2.11,17.14-8.7,29.8,5.8-3.43,9.76-5.54,17.41-11.61,7.12-5.8,11.34-12.4,14.24-20.04,2.9,1.06,7.39,3.17,7.39,10.55,0,9.5-5.54,16.35-12.4,21.89-13.19,10.55-33.5,16.62-46.68,16.62-21.63,0-51.69-6.33-62.51-27.96-1.85-3.69-2.64-7.91-2.64-12.13,0-7.12,2.37-13.98,9.76-16.62,.26,.53,.79,1.32,1.58,2.11,3.69-8.18,7.65-17.94,11.08-29.01,3.69-11.6,7.12-24,9.5-35.87-.79-3.43-1.32-6.86-1.32-10.02,0-2.64,.26-5.01,1.05-7.38,3.17-8.97,13.19-12.92,24.53-12.92Zm-34.81,113.68c1.32,5.54,18.73,16.88,30.07,16.88,1.85,0,3.43-.26,5.01-1.05,4.48-2.37,6.07-7.65,6.07-13.98,0-11.34-5.01-26.38-8.18-34.29-3.43-8.7-7.38-17.14-11.87-25.32-2.37,8.44-5.01,17.14-7.91,25.58-4.22,12.13-10.81,24.53-13.19,32.18Z"/><path class="cls-1" d="M370.83,183.83c-1.85-5.28-2.37-14.77-2.37-28.22,0-15.83,.79-36.4,1.85-57.5,0-2.9,.26-7.39,.53-10.81-9.23-.26-16.35-.79-17.67-.79,0,0-1.06-3.43-1.06-6.59,0-2.11,.53-3.96,2.11-4.48,3.69-1.05,9.76-1.58,16.88-1.85,.26-7.12,.26-12.92,.26-21.63,0-12.66,0-20.31,2.64-28.49,1.58-1.58,3.96-2.37,6.59-2.37,7.65,0,17.41,7.38,21.63,25.06,.53,2.11,.79,6.86,.79,13.98,0,3.96,0,8.18-.26,12.92,5.01,0,9.5,.26,13.71,.26,5.01,0,9.23-.26,12.13-.79,.53,1.32,.79,2.9,.79,4.22,0,4.22-3.17,7.38-12.13,8.97-3.96,.79-9.49,1.32-15.56,1.58-.53,5.28-1.32,10.81-2.37,16.09-2.37,21.1-3.69,39.3-3.69,54.33,0,17.14,2.11,29.8,6.86,33.5,1.85,1.58,3.96,2.11,6.33,2.11,10.55,0,23.74-14.24,26.38-29.54,2.9,.26,7.38,3.69,7.38,11.08,0,2.11-.26,4.75-1.58,8.18-6.59,17.67-21.36,26.11-37.45,26.11-18.99,0-27.96-11.6-32.7-25.32Z"/><path class="cls-1" d="M540.42,192.27c9.5,0,20.31-18.73,22.68-27.69,2.9,.79,6.59,4.22,6.59,11.08,0,1.85-.26,3.69-.79,5.8-4.48,13.19-17.67,27.43-34.02,27.43-6.33,0-15.3-3.43-20.84-7.65-4.22-3.17-7.65-7.38-8.7-11.87-2.37-10.55-3.17-17.14-3.17-23.74,0-3.43,.26-6.86,.53-11.08,0-1.05,.26-2.11,.26-3.17-3.69,12.66-16.35,49.85-32.97,55.65-2.37,.79-4.75,1.05-6.86,1.05-8.97,0-17.67-6.07-24-16.09-7.12-11.08-11.87-27.17-12.4-44.05v-2.9c0-26.9,10.81-59.34,32.7-68.05,4.48-1.85,9.23-2.64,13.98-2.64,12.92,0,25.58,6.33,33.5,17.67,.53-2.9,.79-5.54,1.05-9.5,.26-2.64,2.11-3.96,5.01-3.96,8.18,0,22.95,9.5,23.21,21.1,0,2.64-.53,9.23-1.32,17.14-1.58,15.03-3.43,35.34-3.43,50.64,0,12.4,1.32,21.89,5.27,23.74,1.32,.53,2.37,1.05,3.69,1.05Zm-58.82-20.84c8.44-14.51,16.88-38.77,21.63-60.13-.79-8.44-7.65-20.31-16.35-20.31-2.9,0-6.07,1.32-9.23,4.48-10.81,11.34-17.14,41.67-17.14,63.3,0,13.45,3.69,26.11,7.65,26.11s8.7-5.27,13.45-13.45Z"/><path class="cls-1" d="M562.04,48.79c.79-14.24,1.32-27.96,1.32-40.09,1.32-.26,2.37-.26,3.43-.26,11.34,0,19.78,8.44,23.47,23.47,.53,2.64,.79,7.65,.79,13.19,0,14.77-1.32,36.4-4.22,72,4.48,.26,8.7,.79,14.51,.79,1.85,0,3.96-.26,6.07-.26,8.7-.53,17.41-.26,25.32-2.11,1.32,2.64,2.11,5.27,2.11,7.12,0,7.12-7.12,12.4-18.2,12.4-7.91,0-12.13-.26-16.62-.79,5.54,6.33,10.29,14.77,13.19,26.11,5.28,19.25,7.65,36.92,7.65,51.69,0,24-5.8,40.62-15.03,43.52-2.9,.79-5.8,1.32-8.7,1.32-17.93,0-36.66-15.3-41.14-33.5-1.32-5.54-1.85-14.77-1.85-27.43,0-24.79,1.85-48.53,3.17-75.7,1.32-22.68,3.43-48,4.75-71.48Zm23.21,89.94c-1.32,21.1-2.37,41.94-2.37,58.82,0,11.87,.79,22.16,2.37,29.28,1.05,5.27,2.64,8.97,4.75,10.29,1.32,.79,2.9,1.32,3.96,1.32,5.54,0,8.44-9.23,8.44-22.15,0-19.78-5.28-49.32-12.13-66.73-1.58-3.96-3.43-7.65-5.01-10.81Z"/><path class="cls-1" d="M729.79,156.4c-2.37,20.31-8.44,39.03-22.68,48-5.01,3.17-11.6,4.75-18.46,4.75-17.67,0-38.24-9.49-46.16-24-7.65-13.45-10.81-30.33-10.81-46.16,0-24.53,7.65-48,20.84-57.76,5.28-4.22,10.55-6.07,15.56-6.33,4.22-2.11,8.7-2.9,13.45-2.9,5.8,0,11.87,1.32,17.41,3.43,13.19,5.01,21.89,14.51,26.11,26.9,3.16,10.02,5.27,22.15,5.8,34.29,6.59-1.32,12.92-3.69,18.2-6.86,6.33-3.69,11.34-8.97,13.71-15.83,3.43,2.11,7.65,6.33,7.65,12.4,0,3.43-1.58,8.97-5.54,13.71-7.91,9.23-20.04,14.24-35.08,16.35Zm-59.87,16.09c3.43,11.87,8.97,19.78,15.03,19.78,1.05,0,2.11-.26,3.17-.79,3.17-1.32,6.33-5.54,9.23-11.87s5.28-14.51,7.12-22.95c-6.86-1.05-13.71-2.64-20.31-5.01-6.59-2.37-12.66-5.8-18.46-10.29,0,11.61,1.58,22.42,4.22,31.12Zm37.45-34.55c.26-2.64,.53-5.8,.53-8.97,0-7.39-1.05-15.03-3.17-20.57-4.22-10.55-13.45-17.94-20.84-17.94-2.64,0-5.01,1.06-7.12,3.17-2.9,3.43-4.22,7.38-4.22,11.61,0,7.91,4.48,16.35,11.6,23.47,6.07,5.8,15.56,8.97,23.21,9.23Z"/><path class="cls-1" d="M742.18,70.95c0-22.16,1.05-43.52,3.96-54.6,2.37-10.02,8.44-14.51,15.56-14.51,8.44,0,15.3,3.69,20.57,9.23,9.5,10.29,13.98,27.17,13.98,41.14,0,26.38-8.97,53.01-19.25,81.5v6.59c0,25.06,1.58,45.63,10.81,51.17,1.32,.79,2.64,1.06,3.96,1.06,4.22,0,8.44-3.43,12.13-7.91,5.01-6.07,8.7-14.24,9.76-20.04,2.9,.53,7.12,5.28,7.12,12.66,0,4.48-1.32,7.38-3.17,10.55-5.01,8.44-14.51,17.14-20.57,19.52-4.22,1.58-8.44,2.37-12.66,2.37-10.02,0-19.52-4.22-26.37-13.45-7.91-10.81-10.55-34.55-13.45-64.88-1.58-16.88-2.37-39.56-2.37-60.4Zm38.24-14.77c0-9.5-1.85-17.41-7.12-17.41s-5.8,10.29-5.8,23.74c0,17.67,1.05,32.97,2.9,45.63,0,0,10.02-33.23,10.02-51.96Z"/><path class="cls-1" d="M809.7,157.19c0-12.66,1.32-26.64,2.37-40.88,1.32-14.77,3.17-30.07,3.17-45.36h2.11c7.38,0,17.93,3.69,23.74,16.09,2.37,5.28,3.17,11.34,3.17,18.2s-.79,14.51-1.32,22.68c-1.05,13.45-2.64,26.9-2.64,41.15,0,7.91,.26,15.03,3.17,18.73,1.32,1.85,3.43,2.64,6.07,2.64s6.33-2.37,8.97-5.01c6.86-6.33,12.13-17.41,12.92-21.1,3.17,0,7.12,4.48,7.12,8.97,0,4.22-1.85,10.29-4.48,15.03-7.38,13.19-17.67,20.84-29.01,20.84-16.35,0-27.43-10.02-31.39-21.63-3.69-11.08-3.96-20.31-3.96-30.33Zm32.71-131.87c6.33,3.96,11.08,10.02,11.08,17.41s-7.65,10.81-14.77,10.81c-7.91,0-16.88-4.22-22.68-10.55-3.43-3.96-5.27-8.18-5.27-11.87,0-2.37,.79-4.48,2.11-6.33,2.37-3.17,6.86-5.01,12.92-5.01,5.28,0,11.34,2.11,16.62,5.54Z"/><path class="cls-1" d="M964.52,156.4c-2.37,20.31-8.44,39.03-22.68,48-5.01,3.17-11.6,4.75-18.46,4.75-17.67,0-38.24-9.49-46.16-24-7.65-13.45-10.81-30.33-10.81-46.16,0-24.53,7.65-48,20.84-57.76,5.28-4.22,10.55-6.07,15.56-6.33,4.22-2.11,8.7-2.9,13.45-2.9,5.8,0,11.87,1.32,17.41,3.43,13.19,5.01,21.89,14.51,26.11,26.9,3.16,10.02,5.27,22.15,5.8,34.29,6.59-1.32,12.92-3.69,18.2-6.86,6.33-3.69,11.34-8.97,13.71-15.83,3.43,2.11,7.65,6.33,7.65,12.4,0,3.43-1.58,8.97-5.54,13.71-7.91,9.23-20.04,14.24-35.08,16.35Zm-59.87,16.09c3.43,11.87,8.97,19.78,15.03,19.78,1.05,0,2.11-.26,3.17-.79,3.17-1.32,6.33-5.54,9.23-11.87s5.28-14.51,7.12-22.95c-6.86-1.05-13.71-2.64-20.31-5.01-6.59-2.37-12.66-5.8-18.46-10.29,0,11.61,1.58,22.42,4.22,31.12Zm37.45-34.55c.26-2.64,.53-5.8,.53-8.97,0-7.39-1.05-15.03-3.16-20.57-4.22-10.55-13.45-17.94-20.84-17.94-2.64,0-5.01,1.06-7.12,3.17-2.9,3.43-4.22,7.38-4.22,11.61,0,7.91,4.48,16.35,11.6,23.47,6.07,5.8,15.56,8.97,23.21,9.23Z"/></g></g></svg>